<svg xmlns="http://www.w3.org/2000/svg" xmlns:xlink="http://www.w3.org/1999/xlink" width="1200" height="1200" viewBox="0 0 1200 1200"><g><g transform="translate(600 600) scale(0.69 0.69) rotate(0) translate(-600 -600)" style="fill:#FFFFFF"><svg fill="#FFFFFF" xmlns="http://www.w3.org/2000/svg" xmlns:xlink="http://www.w3.org/1999/xlink" version="1.1" x="0px" y="0px" viewBox="0 0 65 65" enable-background="new 0 0 65 65" xml:space="preserve"><g><polygon points="58,49.8 56.9,50.9 59.3,53.2 56.9,55.6 58,56.7 61.5,53.2  "></polygon><polygon points="48.3,49.8 44.9,53.2 48.3,56.7 49.4,55.6 47,53.2 49.4,50.9  "></polygon><rect x="52.4" y="46.8" transform="matrix(-0.8962 -0.4436 0.4436 -0.8962 77.1895 124.5212)" width="1.5" height="12.8"></rect><path d="M53.2,41.2c-0.9,0-1.7,0.1-2.6,0.3c-1.9-1.9-4.2-3.2-6.8-4c0.5-2.3,0.3-4.1-0.9-5.4c-1.5-1.7-4-2-5.7-1.9   c1.9-2.1,3.3-4.8,3.4-7.9c0.9-0.8,3.4-3,3.3-5.4c-0.1-2.4-1.7-2.5-2.1-2.5c0,0-0.1,0-0.1,0l0.4-3.6c0.2-4.3-1.7-5.9-3.1-6.5   C40.4,2.3,40,1,40,0.9l-0.3-0.9l-0.8,0.6c-0.9,0.6-1.8,0.9-2.7,0.9c-0.6,0-1-0.2-1-0.2c-2.7-1.2-8.4-1.5-8.7-1.5   c-5.9,0-7.7,3-8.1,4.2c-5,0.6-4.8,5.6-4.7,8c0,0.4,0,0.8,0,1.1c0,0.5,0,1,0.1,1.5c-0.7,0-2,0.4-2,2.5c-0.1,2.4,2.4,4.7,3.3,5.4   c0.1,2.9,1.4,5.5,3.2,7.6c-1.7,0-4.4,0.2-5.9,1.9c-1.1,1.3-1.4,3.1-0.8,5.5c-7,2.3-11.8,9-11.8,16.4v3.2h42   c1.6,4.7,6.1,8.1,11.3,8.1c6.6,0,12-5.4,12-12C65.2,46.6,59.8,41.2,53.2,41.2z M41.8,33.1c0.9,1,1,2.6,0.3,4.8   c-0.1,0.2-2.1,4.5-8.1,6.1c-0.4-1.1-1.2-2-2.3-2.5c0.9-0.5,1.6-1.1,2.2-1.8c2.3-2.7,2.4-6.4,2.4-7.9C37.7,31.6,40.5,31.6,41.8,33.1   z M33.6,48.4c0.7,0,1.2,0.6,1.2,1.2c0,0.7-0.6,1.2-1.2,1.2c-0.7,0-1.3-0.6-1.3-1.2C32.4,49,32.9,48.4,33.6,48.4z M27.4,41   c-2.1-0.2-3.8-1-4.9-2.3c-1.7-2-2-4.9-2.1-6.4c2.3,1.8,4.9,2.9,7.4,2.9c2.1,0,4.8-1,7.1-2.8c0,1.6-0.4,4.4-2.1,6.4   C31.7,40,30,40.8,27.9,41H27.4z M19,5.4l0.6,0l0.1-0.6c0,0,0.7-3.6,6.8-3.6c0.1,0,5.6,0.3,8.1,1.4c0.1,0,0.7,0.3,1.6,0.3   c0.7,0,1.4-0.1,2-0.4C38,2.9,37.6,3.4,37.1,4L36,5.2l1.6,0.1c0.1,0,3.3,0.3,3,5.3l-0.4,3.6l-1.7,0.7c-0.4-0.5-1-0.7-1.3-0.8   C36.4,14,35.6,14,34.6,14c-1.7,0-3.3,0.2-3.4,0.2c-1.3,0.2-2.2,0.6-2.6,1.4c0,0.1,0,0.1-0.1,0.2h-1.3c0-0.1,0-0.1-0.1-0.2   c-0.4-0.8-1.3-1.3-2.6-1.4c-0.1,0-1.7-0.2-3.4-0.2c-1,0-1.9,0.1-2.5,0.2c-0.3,0.1-0.9,0.3-1.3,0.8l-2-0.8c0-0.4-0.1-0.7-0.1-1   c0-0.3,0-0.7,0-1.2C15,8.6,15.2,5.6,19,5.4z M37.5,17.3L37.4,18c-0.3,1.8-0.4,2.1-1.3,2.3c0,0-1,0.2-2.2,0.2   c-1.3,0-2.2-0.3-2.7-0.7c-0.2-0.3-0.8-1.4-1.3-2.7c0,0-0.2-0.5,0-0.8c0.2-0.3,0.7-0.5,1.4-0.6c0,0,1.6-0.2,3.3-0.2   c0.9,0,1.7,0.1,2.2,0.2C36.9,15.6,37.8,15.8,37.5,17.3z M25.7,17.2c-0.5,1.3-1.1,2.4-1.3,2.6c-0.5,0.5-1.4,0.7-2.7,0.7   c-1.1,0-2.1-0.2-2.1-0.2c0,0,0,0,0,0c-0.9-0.3-1-0.6-1.3-2.4l-0.1-0.7c-0.2-1.4,0.5-1.6,0.7-1.7c0.5-0.1,1.3-0.2,2.2-0.2   c1.6,0,3.2,0.2,3.2,0.2c0.8,0.1,1.3,0.3,1.4,0.6C26,16.6,25.8,17.1,25.7,17.2z M16.6,21.8l-0.3-0.2c-0.9-0.7-3.1-2.7-3-4.4   c0-1.1,0.4-1.1,0.7-1.1c0.4,0,0.8-0.2,1-0.4l1.7,0.7c-0.1,0.4-0.1,0.8,0,1.3l0.1,0.7c0.3,1.8,0.5,3,2.4,3.6c0,0,1.2,0.2,2.5,0.2   c1.8,0,3.1-0.4,3.9-1.3l0.1-0.1c0-0.1,0.9-1.4,1.5-2.9c0,0,0.1-0.3,0.2-0.6h1.1c0.1,0.3,0.2,0.5,0.2,0.5c0.6,1.6,1.5,2.9,1.5,3   l0.1,0.1c0.8,0.8,2.1,1.3,3.9,1.3c1.3,0,2.4-0.2,2.5-0.3c1.9-0.6,2.1-1.7,2.4-3.5l0.1-0.7c0.1-0.5,0.1-0.9,0-1.3l1.6-0.6   c0.2,0.1,0.4,0.2,0.6,0.2l0.3,0c0.1,0,0.2,0,0.3,0c0.2,0,0.6,0,0.6,1.1c0,1.7-2.2,3.8-3,4.4l-0.3,0.2v0.4c0,3.3-1.8,6.4-4.2,8.5   l0,0l0,0c-2.2,1.9-4.9,3.1-7,3.1c-5,0-11.1-5.1-11.2-11.4L16.6,21.8z M13.6,33.1c1.3-1.5,4.1-1.5,5.4-1.4c0,1.6,0.1,5.3,2.4,7.9   c0.7,0.9,1.6,1.5,2.7,2c-0.9,0.6-1.6,1.5-2,2.5c-6.6-1.5-8.8-6.1-8.8-6.2C12.6,35.7,12.7,34.1,13.6,33.1z M22.6,50.2   c0.7,0,1.3,0.6,1.3,1.2c0,0.7-0.6,1.2-1.3,1.2c-0.7,0-1.3-0.6-1.3-1.2C21.4,50.7,21.9,50.2,22.6,50.2z M1.3,55.7v-1.7   c0-6.8,4.4-12.8,10.8-15c0.8,1.4,3.5,5.3,9.7,6.7v3.1c-1.2,0.3-2,1.4-2,2.6c0,1.5,1.2,2.7,2.8,2.7s2.8-1.2,2.8-2.7   c0-1.3-0.8-2.3-2-2.6v-3.3c0-1.7,1.3-3,3-3h1c0.1,0,0.2,0,0.3,0l0,0h0.1l0,0c0.1,0,0.2,0,0.3,0h1.9c1.7,0,3,1.3,3,3V47   c-1.2,0.3-2,1.4-2,2.6c0,1.5,1.2,2.7,2.7,2.7c1.5,0,2.7-1.2,2.7-2.7c0-1.3-0.8-2.3-2-2.6v-1.5c0,0,0,0,0,0c5.7-1.5,8.2-5.2,8.9-6.6   c2.1,0.6,4,1.7,5.6,3.1c-4.5,1.7-7.8,6.1-7.8,11.2c0,0.8,0.1,1.7,0.3,2.4H1.3z M53.2,63.7c-5.8,0-10.5-4.7-10.5-10.5   s4.7-10.5,10.5-10.5s10.5,4.7,10.5,10.5S59,63.7,53.2,63.7z"></path></g></svg></g></g></svg>